<svg xmlns="http://www.w3.org/2000/svg" viewBox="0 0 1920 1080" aria-hidden="true">
<defs>
<linearGradient id="jungleSky" x2="0" y2="1"><stop stop-color="#061f28"/><stop offset=".45" stop-color="#0c5c50"/><stop offset="1" stop-color="#123d31"/></linearGradient>
<linearGradient id="clearing" x2="0" y2="1"><stop stop-color="#61ba75" stop-opacity=".48"/><stop offset="1" stop-color="#143b30" stop-opacity="0"/></linearGradient>
<radialGradient id="canopyGlow"><stop stop-color="#e6f7ac" stop-opacity=".54"/><stop offset=".38" stop-color="#a9e58b" stop-opacity=".17"/><stop offset="1" stop-color="#7bd07b" stop-opacity="0"/></radialGradient>
<radialGradient id="mistGlow"><stop stop-color="#d4f1c7" stop-opacity=".36"/><stop offset="1" stop-color="#8fc59d" stop-opacity="0"/></radialGradient>
<linearGradient id="ray" x2="0" y2="1"><stop stop-color="#efffc4" stop-opacity=".24"/><stop offset="1" stop-color="#b8eeaa" stop-opacity="0"/></linearGradient>
<filter id="jungleBlur" x="-30%" y="-30%" width="160%" height="160%"><feGaussianBlur stdDeviation="32"/></filter>
<filter id="fireflyGlow" x="-500%" y="-500%" width="1000%" height="1000%"><feGaussianBlur stdDeviation="3"/></filter>
</defs>
<rect width="1920" height="1080" fill="url(#jungleSky)"/>
<ellipse cx="1015" cy="125" rx="620" ry="390" fill="url(#canopyGlow)" filter="url(#jungleBlur)"/>
<path d="M725 0h160l-126 820-282 4zM1010 0h124l128 788-244 8zM1260 0h104l318 744-238 40z" fill="url(#ray)"/>
<path d="M0 390c180-92 330 13 512-56 172-66 313 36 488-20 184-59 339 39 508-15 161-52 285 11 412-27v443H0z" fill="#0b483d" opacity=".62"/>
<g><ellipse cx="543" cy="606" rx="69" ry="78" fill="#12624c" opacity="0.26" transform="rotate(-28 543 606)"/>
<ellipse cx="958" cy="678" rx="29" ry="124" fill="#167058" opacity="0.45" transform="rotate(7 958 678)"/>
<ellipse cx="1563" cy="547" rx="66" ry="169" fill="#1b7b59" opacity="0.32" transform="rotate(-24 1563 547)"/>
<ellipse cx="984" cy="814" rx="35" ry="137" fill="#205f48" opacity="0.39" transform="rotate(30 984 814)"/>
<ellipse cx="418" cy="747" rx="58" ry="111" fill="#12624c" opacity="0.37" transform="rotate(23 418 747)"/>
<ellipse cx="851" cy="768" rx="86" ry="150" fill="#167058" opacity="0.27" transform="rotate(-16 851 768)"/>
<ellipse cx="490" cy="720" rx="70" ry="95" fill="#1b7b59" opacity="0.49" transform="rotate(16 490 720)"/>
<ellipse cx="586" cy="578" rx="35" ry="67" fill="#205f48" opacity="0.29" transform="rotate(-20 586 578)"/>
<ellipse cx="645" cy="639" rx="52" ry="84" fill="#12624c" opacity="0.25" transform="rotate(-33 645 639)"/>
<ellipse cx="1844" cy="639" rx="38" ry="155" fill="#167058" opacity="0.25" transform="rotate(3 1844 639)"/>
<ellipse cx="864" cy="665" rx="31" ry="90" fill="#1b7b59" opacity="0.46" transform="rotate(30 864 665)"/>
<ellipse cx="412" cy="695" rx="78" ry="96" fill="#205f48" opacity="0.37" transform="rotate(-21 412 695)"/>
<ellipse cx="1827" cy="771" rx="61" ry="110" fill="#12624c" opacity="0.32" transform="rotate(19 1827 771)"/>
<ellipse cx="1640" cy="561" rx="31" ry="67" fill="#167058" opacity="0.43" transform="rotate(2 1640 561)"/>
<ellipse cx="370" cy="683" rx="38" ry="148" fill="#1b7b59" opacity="0.41" transform="rotate(-8 370 683)"/>
<ellipse cx="1412" cy="598" rx="38" ry="166" fill="#205f48" opacity="0.49" transform="rotate(7 1412 598)"/>
<ellipse cx="427" cy="572" rx="30" ry="89" fill="#12624c" opacity="0.26" transform="rotate(-10 427 572)"/>
<ellipse cx="552" cy="632" rx="69" ry="173" fill="#167058" opacity="0.26" transform="rotate(9 552 632)"/>
<ellipse cx="100" cy="782" rx="46" ry="152" fill="#1b7b59" opacity="0.33" transform="rotate(-10 100 782)"/>
<ellipse cx="64" cy="615" rx="87" ry="88" fill="#205f48" opacity="0.33" transform="rotate(-9 64 615)"/>
<ellipse cx="407" cy="742" rx="50" ry="64" fill="#12624c" opacity="0.49" transform="rotate(29 407 742)"/>
<ellipse cx="1899" cy="659" rx="86" ry="155" fill="#167058" opacity="0.49" transform="rotate(-16 1899 659)"/>
<ellipse cx="1126" cy="626" rx="47" ry="147" fill="#1b7b59" opacity="0.51" transform="rotate(24 1126 626)"/>
<ellipse cx="110" cy="584" rx="50" ry="140" fill="#205f48" opacity="0.25" transform="rotate(17 110 584)"/>
<ellipse cx="1464" cy="657" rx="67" ry="115" fill="#12624c" opacity="0.50" transform="rotate(8 1464 657)"/>
<ellipse cx="1466" cy="668" rx="60" ry="115" fill="#167058" opacity="0.36" transform="rotate(13 1466 668)"/>
<ellipse cx="719" cy="547" rx="69" ry="150" fill="#1b7b59" opacity="0.40" transform="rotate(-16 719 547)"/>
<ellipse cx="1836" cy="594" rx="54" ry="180" fill="#205f48" opacity="0.27" transform="rotate(-16 1836 594)"/>
<ellipse cx="347" cy="746" rx="66" ry="133" fill="#12624c" opacity="0.50" transform="rotate(-5 347 746)"/>
<ellipse cx="612" cy="823" rx="57" ry="107" fill="#167058" opacity="0.45" transform="rotate(12 612 823)"/>
<ellipse cx="1644" cy="626" rx="62" ry="75" fill="#1b7b59" opacity="0.42" transform="rotate(26 1644 626)"/>
<ellipse cx="1560" cy="540" rx="61" ry="136" fill="#205f48" opacity="0.27" transform="rotate(32 1560 540)"/>
<ellipse cx="1412" cy="829" rx="87" ry="91" fill="#12624c" opacity="0.51" transform="rotate(-4 1412 829)"/>
<ellipse cx="776" cy="764" rx="59" ry="97" fill="#167058" opacity="0.38" transform="rotate(7 776 764)"/>
<ellipse cx="1897" cy="549" rx="67" ry="156" fill="#1b7b59" opacity="0.38" transform="rotate(-3 1897 549)"/>
<ellipse cx="1320" cy="596" rx="33" ry="96" fill="#205f48" opacity="0.29" transform="rotate(-10 1320 596)"/>
<ellipse cx="1858" cy="732" rx="57" ry="69" fill="#12624c" opacity="0.25" transform="rotate(15 1858 732)"/>
<ellipse cx="504" cy="771" rx="49" ry="108" fill="#167058" opacity="0.44" transform="rotate(-18 504 771)"/>
<ellipse cx="1361" cy="823" rx="76" ry="171" fill="#1b7b59" opacity="0.41" transform="rotate(25 1361 823)"/>
<ellipse cx="1876" cy="814" rx="26" ry="92" fill="#205f48" opacity="0.34" transform="rotate(31 1876 814)"/>
<ellipse cx="1565" cy="766" rx="39" ry="60" fill="#12624c" opacity="0.31" transform="rotate(18 1565 766)"/>
<ellipse cx="754" cy="540" rx="80" ry="76" fill="#167058" opacity="0.52" transform="rotate(31 754 540)"/>
<ellipse cx="420" cy="569" rx="46" ry="117" fill="#1b7b59" opacity="0.33" transform="rotate(30 420 569)"/>
<ellipse cx="161" cy="732" rx="72" ry="83" fill="#205f48" opacity="0.26" transform="rotate(-14 161 732)"/>
<ellipse cx="1048" cy="573" rx="43" ry="135" fill="#12624c" opacity="0.27" transform="rotate(1 1048 573)"/>
<ellipse cx="1205" cy="683" rx="69" ry="132" fill="#167058" opacity="0.30" transform="rotate(5 1205 683)"/>
<ellipse cx="140" cy="579" rx="65" ry="172" fill="#1b7b59" opacity="0.52" transform="rotate(-34 140 579)"/>
<ellipse cx="765" cy="807" rx="54" ry="118" fill="#205f48" opacity="0.33" transform="rotate(2 765 807)"/>
<ellipse cx="976" cy="546" rx="52" ry="139" fill="#12624c" opacity="0.33" transform="rotate(31 976 546)"/>
<ellipse cx="1000" cy="637" rx="41" ry="111" fill="#167058" opacity="0.30" transform="rotate(16 1000 637)"/>
<ellipse cx="161" cy="541" rx="76" ry="61" fill="#1b7b59" opacity="0.34" transform="rotate(-27 161 541)"/>
<ellipse cx="1140" cy="567" rx="81" ry="91" fill="#205f48" opacity="0.42" transform="rotate(15 1140 567)"/>
<ellipse cx="1326" cy="715" rx="74" ry="111" fill="#12624c" opacity="0.47" transform="rotate(-25 1326 715)"/>
<ellipse cx="92" cy="807" rx="27" ry="89" fill="#167058" opacity="0.27" transform="rotate(32 92 807)"/>
<ellipse cx="77" cy="636" rx="87" ry="117" fill="#1b7b59" opacity="0.27" transform="rotate(0 77 636)"/>
<ellipse cx="450" cy="676" rx="81" ry="160" fill="#205f48" opacity="0.25" transform="rotate(-11 450 676)"/>
<ellipse cx="179" cy="701" rx="74" ry="119" fill="#12624c" opacity="0.29" transform="rotate(-32 179 701)"/>
<ellipse cx="1194" cy="814" rx="84" ry="147" fill="#167058" opacity="0.43" transform="rotate(-35 1194 814)"/></g>
<ellipse cx="975" cy="690" rx="760" ry="280" fill="url(#mistGlow)" filter="url(#jungleBlur)"/>
<path d="M0 760c237-89 392 12 610-37 204-46 364 33 561-5 229-45 402 44 749-24v386H0z" fill="url(#clearing)"/>
<g fill="none" stroke-linecap="round"><path d="M173 0c-12 142 104 166 51 319-38 108 19 183 82 236" stroke="#39a85e" stroke-width="13"/><path d="M378 0c34 108-42 191 14 289 42 73 23 148-29 221" stroke="#2f8d50" stroke-width="10"/><path d="M1588 0c-31 125 45 176-8 300-43 101-4 174 66 244" stroke="#319655" stroke-width="12"/><path d="M1782 0c18 116-57 198-6 315 28 64 7 121-27 177" stroke="#2a814c" stroke-width="9"/></g>
<g fill="#55c56d"><path d="M204 192c-65-30-91 38-35 71 49 28 92-20 35-71z"/><path d="M260 356c62-33 95 30 43 68-46 34-94-10-43-68z"/><path d="M1598 207c68-27 89 41 30 70-52 26-91-25-30-70z"/><path d="M1745 350c-62-31-94 32-40 69 47 32 94-14 40-69z"/></g>
<g transform="translate(-70 120) rotate(18)">
<path d="M0 0C165 -52.800000000000004 475.2 26.400000000000002 660 0" fill="none" stroke="#64c86c" stroke-width="8" stroke-linecap="round"/>
<path d="M34.7 -2.7C30.4 -22.1 44.2 -38.0 51.1 -45.7C39.0 -29.4 33.4 -13.5 34.7 -2.7Z" fill="#12734a"/>
<path d="M34.7 -2.7C38.2 15.8 48.5 30.8 56.2 40.3C44.6 24.4 35.6 5.9 34.7 -2.7Z" fill="#12734a"/>
<path d="M69.5 -5.4C62.7 -35.6 84.3 -60.5 95.0 -72.6C76.2 -47.1 67.5 -22.2 69.5 -5.4Z" fill="#12734a"/>
<path d="M69.5 -5.4C74.9 23.6 91.0 47.1 103.1 61.9C85.0 37.0 70.8 8.1 69.5 -5.4Z" fill="#12734a"/>
<path d="M104.2 -7.9C95.2 -48.5 124.1 -81.9 138.5 -98.1C113.2 -63.8 101.5 -30.4 104.2 -7.9Z" fill="#12734a"/>
<path d="M104.2 -7.9C111.4 31.0 133.1 62.5 149.3 82.4C125.0 49.0 106.0 10.2 104.2 -7.9Z" fill="#12734a"/>
<path d="M138.9 -10.1C127.8 -60.2 163.4 -101.3 181.2 -121.4C150.1 -79.1 135.6 -37.9 138.9 -10.1Z" fill="#12734a"/>
<path d="M138.9 -10.1C147.8 37.7 174.5 76.6 194.6 101.1C164.5 59.9 141.2 12.1 138.9 -10.1Z" fill="#12734a"/>
<path d="M173.7 -12.1C160.7 -70.5 202.2 -118.5 223.0 -141.8C186.7 -92.5 169.8 -44.6 173.7 -12.1Z" fill="#12734a"/>
<path d="M173.7 -12.1C184.1 43.6 215.2 89.0 238.5 117.5C203.5 69.6 176.3 13.8 173.7 -12.1Z" fill="#12734a"/>
<path d="M208.4 -13.8C193.9 -79.1 240.3 -132.8 263.6 -158.9C222.9 -103.8 204.1 -50.1 208.4 -13.8Z" fill="#12734a"/>
<path d="M208.4 -13.8C220.0 48.6 254.8 99.4 281.0 131.3C241.8 77.6 211.3 15.2 208.4 -13.8Z" fill="#12734a"/>
<path d="M243.2 -15.1C227.5 -85.8 277.7 -143.9 302.8 -172.1C258.9 -112.5 238.4 -54.4 243.2 -15.1Z" fill="#12734a"/>
<path d="M243.2 -15.1C255.7 52.4 293.4 107.4 321.7 141.9C279.3 83.8 246.3 16.3 243.2 -15.1Z" fill="#12734a"/>
<path d="M277.9 -16.0C261.4 -90.3 314.2 -151.4 340.7 -181.2C294.4 -118.4 272.9 -57.3 277.9 -16.0Z" fill="#12734a"/>
<path d="M277.9 -16.0C291.1 55.0 330.7 112.8 360.5 149.2C315.9 88.1 281.2 17.0 277.9 -16.0Z" fill="#12734a"/>
<path d="M312.6 -16.4C295.7 -92.6 349.9 -155.3 377.0 -185.7C329.6 -121.4 307.6 -58.8 312.6 -16.4Z" fill="#12734a"/>
<path d="M312.6 -16.4C326.2 56.3 366.8 115.6 397.3 152.8C351.6 90.2 316.0 17.4 312.6 -16.4Z" fill="#12734a"/>
<path d="M347.4 -16.4C330.4 -92.6 384.6 -155.3 411.7 -185.7C364.3 -121.4 342.3 -58.8 347.4 -16.4Z" fill="#12734a"/>
<path d="M347.4 -16.4C360.9 56.3 401.5 115.6 432.0 152.8C386.3 90.2 350.8 17.4 347.4 -16.4Z" fill="#12734a"/>
<path d="M382.1 -16.0C365.6 -90.3 418.4 -151.4 444.9 -181.2C398.6 -118.4 377.2 -57.3 382.1 -16.0Z" fill="#12734a"/>
<path d="M382.1 -16.0C395.3 55.0 435.0 112.8 464.7 149.2C420.1 88.1 385.4 17.0 382.1 -16.0Z" fill="#12734a"/>
<path d="M416.8 -15.1C401.1 -85.8 451.4 -143.9 476.5 -172.1C432.5 -112.5 412.1 -54.4 416.8 -15.1Z" fill="#12734a"/>
<path d="M416.8 -15.1C429.4 52.4 467.1 107.4 495.3 141.9C453.0 83.8 420.0 16.3 416.8 -15.1Z" fill="#12734a"/>
<path d="M451.6 -13.8C437.1 -79.1 483.5 -132.8 506.7 -158.9C466.1 -103.8 447.2 -50.1 451.6 -13.8Z" fill="#12734a"/>
<path d="M451.6 -13.8C463.2 48.6 498.0 99.4 524.1 131.3C484.9 77.6 454.5 15.2 451.6 -13.8Z" fill="#12734a"/>
<path d="M486.3 -12.1C473.3 -70.5 514.8 -118.5 535.6 -141.8C499.3 -92.5 482.4 -44.6 486.3 -12.1Z" fill="#12734a"/>
<path d="M486.3 -12.1C496.7 43.6 527.8 89.0 551.2 117.5C516.1 69.6 488.9 13.8 486.3 -12.1Z" fill="#12734a"/>
<path d="M521.1 -10.1C509.9 -60.2 545.5 -101.3 563.3 -121.4C532.2 -79.1 517.7 -37.9 521.1 -10.1Z" fill="#12734a"/>
<path d="M521.1 -10.1C530.0 37.7 556.6 76.6 576.7 101.1C546.6 59.9 523.3 12.1 521.1 -10.1Z" fill="#12734a"/>
<path d="M555.8 -7.9C546.8 -48.5 575.6 -81.9 590.1 -98.1C564.8 -63.8 553.1 -30.4 555.8 -7.9Z" fill="#12734a"/>
<path d="M555.8 -7.9C563.0 31.0 584.7 62.5 600.9 82.4C576.5 49.0 557.6 10.2 555.8 -7.9Z" fill="#12734a"/>
<path d="M590.5 -5.4C583.8 -35.6 605.3 -60.5 616.1 -72.6C597.3 -47.1 588.5 -22.2 590.5 -5.4Z" fill="#12734a"/>
<path d="M590.5 -5.4C595.9 23.6 612.1 47.1 624.2 61.9C606.0 37.0 591.9 8.1 590.5 -5.4Z" fill="#12734a"/>
<path d="M625.3 -2.7C621.0 -22.1 634.7 -38.0 641.6 -45.7C629.6 -29.4 624.0 -13.5 625.3 -2.7Z" fill="#12734a"/>
<path d="M625.3 -2.7C628.7 15.8 639.0 30.8 646.8 40.3C635.1 24.4 626.1 5.9 625.3 -2.7Z" fill="#12734a"/>
</g>
<g transform="translate(1990 105) rotate(162)">
<path d="M0 0C162.5 -52 468 26 650 0" fill="none" stroke="#5bc36a" stroke-width="8" stroke-linecap="round"/>
<path d="M34.2 -2.7C29.9 -21.8 43.6 -37.6 50.4 -45.3C38.5 -29.1 32.9 -13.3 34.2 -2.7Z" fill="#0f6946"/>
<path d="M34.2 -2.7C37.6 15.6 47.8 30.6 55.5 39.9C44.0 24.2 35.1 5.8 34.2 -2.7Z" fill="#0f6946"/>
<path d="M68.4 -5.3C61.8 -35.2 83.1 -59.8 93.7 -71.8C75.1 -46.5 66.4 -21.9 68.4 -5.3Z" fill="#0f6946"/>
<path d="M68.4 -5.3C73.7 23.3 89.7 46.6 101.7 61.3C83.7 36.6 69.8 8.0 68.4 -5.3Z" fill="#0f6946"/>
<path d="M102.6 -7.7C93.7 -47.9 122.2 -80.8 136.5 -96.9C111.5 -63.0 100.0 -30.0 102.6 -7.7Z" fill="#0f6946"/>
<path d="M102.6 -7.7C109.8 30.6 131.2 61.8 147.2 81.4C123.1 48.4 104.4 10.1 102.6 -7.7Z" fill="#0f6946"/>
<path d="M136.8 -10.0C125.9 -59.4 161.0 -100.0 178.6 -119.8C147.8 -78.1 133.5 -37.4 136.8 -10.0Z" fill="#0f6946"/>
<path d="M136.8 -10.0C145.6 37.2 172.0 75.7 191.8 99.8C162.1 59.2 139.0 12.0 136.8 -10.0Z" fill="#0f6946"/>
<path d="M171.1 -12.0C158.3 -69.6 199.2 -116.9 219.7 -139.9C183.9 -91.3 167.2 -44.0 171.1 -12.0Z" fill="#0f6946"/>
<path d="M171.1 -12.0C181.3 43.1 212.0 87.9 235.0 116.0C200.5 68.7 173.6 13.6 171.1 -12.0Z" fill="#0f6946"/>
<path d="M205.3 -13.6C190.9 -78.0 236.8 -131.0 259.7 -156.8C219.6 -102.4 201.0 -49.4 205.3 -13.6Z" fill="#0f6946"/>
<path d="M205.3 -13.6C216.7 48.0 251.1 98.1 276.8 129.6C238.2 76.6 208.1 15.0 205.3 -13.6Z" fill="#0f6946"/>
<path d="M239.5 -14.9C224.0 -84.6 273.6 -141.9 298.3 -169.8C255.0 -110.9 234.8 -53.6 239.5 -14.9Z" fill="#0f6946"/>
<path d="M239.5 -14.9C251.9 51.7 289.0 105.9 316.9 140.0C275.1 82.7 242.6 16.1 239.5 -14.9Z" fill="#0f6946"/>
<path d="M273.7 -15.8C257.4 -89.1 309.5 -149.4 335.6 -178.7C290.0 -116.8 268.8 -56.5 273.7 -15.8Z" fill="#0f6946"/>
<path d="M273.7 -15.8C286.7 54.3 325.8 111.3 355.1 147.2C311.2 86.9 276.9 16.8 273.7 -15.8Z" fill="#0f6946"/>
<path d="M307.9 -16.2C291.2 -91.3 344.6 -153.1 371.4 -183.2C324.6 -119.7 302.9 -57.9 307.9 -16.2Z" fill="#0f6946"/>
<path d="M307.9 -16.2C321.3 55.6 361.3 114.1 391.4 150.8C346.3 89.0 311.2 17.2 307.9 -16.2Z" fill="#0f6946"/>
<path d="M342.1 -16.2C325.4 -91.3 378.8 -153.1 405.6 -183.2C358.8 -119.7 337.1 -57.9 342.1 -16.2Z" fill="#0f6946"/>
<path d="M342.1 -16.2C355.5 55.6 395.5 114.1 425.6 150.8C380.5 89.0 345.4 17.2 342.1 -16.2Z" fill="#0f6946"/>
<path d="M376.3 -15.8C360.0 -89.1 412.2 -149.4 438.2 -178.7C392.6 -116.8 371.4 -56.5 376.3 -15.8Z" fill="#0f6946"/>
<path d="M376.3 -15.8C389.3 54.3 428.5 111.3 457.8 147.2C413.8 86.9 379.6 16.8 376.3 -15.8Z" fill="#0f6946"/>
<path d="M410.5 -14.9C395.0 -84.6 444.6 -141.9 469.4 -169.8C426.0 -110.9 405.9 -53.6 410.5 -14.9Z" fill="#0f6946"/>
<path d="M410.5 -14.9C422.9 51.7 460.1 105.9 488.0 140.0C446.2 82.7 413.6 16.1 410.5 -14.9Z" fill="#0f6946"/>
<path d="M444.7 -13.6C430.4 -78.0 476.2 -131.0 499.1 -156.8C459.1 -102.4 440.4 -49.4 444.7 -13.6Z" fill="#0f6946"/>
<path d="M444.7 -13.6C456.2 48.0 490.5 98.1 516.3 129.6C477.7 76.6 447.6 15.0 444.7 -13.6Z" fill="#0f6946"/>
<path d="M478.9 -12.0C466.1 -69.6 507.1 -116.9 527.6 -139.9C491.7 -91.3 475.1 -44.0 478.9 -12.0Z" fill="#0f6946"/>
<path d="M478.9 -12.0C489.2 43.1 519.9 87.9 542.9 116.0C508.4 68.7 481.5 13.6 478.9 -12.0Z" fill="#0f6946"/>
<path d="M513.2 -10.0C502.2 -59.4 537.3 -100.0 554.9 -119.8C524.1 -78.1 509.9 -37.4 513.2 -10.0Z" fill="#0f6946"/>
<path d="M513.2 -10.0C521.9 37.2 548.3 75.7 568.1 99.8C538.4 59.2 515.4 12.0 513.2 -10.0Z" fill="#0f6946"/>
<path d="M547.4 -7.7C538.5 -47.9 567.0 -80.8 581.2 -96.9C556.3 -63.0 544.7 -30.0 547.4 -7.7Z" fill="#0f6946"/>
<path d="M547.4 -7.7C554.5 30.6 575.9 61.8 591.9 81.4C567.9 48.4 549.2 10.1 547.4 -7.7Z" fill="#0f6946"/>
<path d="M581.6 -5.3C574.9 -35.2 596.2 -59.8 606.9 -71.8C588.2 -46.5 579.6 -21.9 581.6 -5.3Z" fill="#0f6946"/>
<path d="M581.6 -5.3C586.9 23.3 602.9 46.6 614.9 61.3C596.9 36.6 582.9 8.0 581.6 -5.3Z" fill="#0f6946"/>
<path d="M615.8 -2.7C611.5 -21.8 625.2 -37.6 632.0 -45.3C620.1 -29.1 614.5 -13.3 615.8 -2.7Z" fill="#0f6946"/>
<path d="M615.8 -2.7C619.2 15.6 629.4 30.6 637.1 39.9C625.6 24.2 616.6 5.8 615.8 -2.7Z" fill="#0f6946"/>
</g>
<g transform="translate(-110 430) rotate(-5)">
<path d="M0 0C145 -46.4 417.59999999999997 23.2 580 0" fill="none" stroke="#79d875" stroke-width="8" stroke-linecap="round"/>
<path d="M30.5 -2.4C26.5 -20.4 39.3 -35.2 45.7 -42.3C34.5 -27.2 29.3 -12.4 30.5 -2.4Z" fill="#168b50"/>
<path d="M30.5 -2.4C33.7 14.8 43.3 28.8 50.5 37.6C39.7 22.8 31.3 5.6 30.5 -2.4Z" fill="#168b50"/>
<path d="M61.1 -4.7C54.9 -32.3 74.5 -55.0 84.4 -66.0C67.2 -42.7 59.2 -20.0 61.1 -4.7Z" fill="#168b50"/>
<path d="M61.1 -4.7C66.0 21.7 80.7 43.1 91.7 56.6C75.2 33.9 62.3 7.6 61.1 -4.7Z" fill="#168b50"/>
<path d="M91.6 -6.9C83.4 -43.6 109.5 -73.7 122.5 -88.4C99.7 -57.4 89.1 -27.3 91.6 -6.9Z" fill="#168b50"/>
<path d="M91.6 -6.9C98.1 28.1 117.7 56.7 132.3 74.6C110.3 44.4 93.2 9.4 91.6 -6.9Z" fill="#168b50"/>
<path d="M122.1 -8.9C112.1 -53.9 144.1 -90.9 160.1 -108.8C132.1 -70.9 119.1 -33.9 122.1 -8.9Z" fill="#168b50"/>
<path d="M122.1 -8.9C130.1 34.1 154.1 69.0 172.1 91.0C145.1 54.1 124.1 11.1 122.1 -8.9Z" fill="#168b50"/>
<path d="M152.6 -10.7C141.0 -62.9 178.2 -105.9 196.8 -126.8C164.2 -82.7 149.1 -39.7 152.6 -10.7Z" fill="#168b50"/>
<path d="M152.6 -10.7C161.9 39.3 189.8 79.9 210.7 105.5C179.3 62.5 155.0 12.6 152.6 -10.7Z" fill="#168b50"/>
<path d="M183.2 -12.1C170.2 -70.5 211.7 -118.5 232.4 -141.8C196.1 -92.5 179.3 -44.6 183.2 -12.1Z" fill="#168b50"/>
<path d="M183.2 -12.1C193.5 43.6 224.7 89.0 248.0 117.5C213.0 69.6 185.8 13.8 183.2 -12.1Z" fill="#168b50"/>
<path d="M213.7 -13.3C199.7 -76.4 244.5 -128.2 266.9 -153.4C227.7 -100.2 209.5 -48.3 213.7 -13.3Z" fill="#168b50"/>
<path d="M213.7 -13.3C224.9 47.0 258.5 96.0 283.8 126.9C245.9 75.0 216.5 14.8 213.7 -13.3Z" fill="#168b50"/>
<path d="M244.2 -14.1C229.5 -80.3 276.6 -134.9 300.2 -161.4C258.9 -105.4 239.8 -50.9 244.2 -14.1Z" fill="#168b50"/>
<path d="M244.2 -14.1C256.0 49.3 291.4 100.9 317.9 133.3C278.1 78.8 247.2 15.4 244.2 -14.1Z" fill="#168b50"/>
<path d="M274.7 -14.5C259.6 -82.4 307.9 -138.2 332.1 -165.4C289.8 -108.0 270.2 -52.2 274.7 -14.5Z" fill="#168b50"/>
<path d="M274.7 -14.5C286.8 50.5 323.0 103.3 350.2 136.5C309.5 80.6 277.8 15.7 274.7 -14.5Z" fill="#168b50"/>
<path d="M305.3 -14.5C290.2 -82.4 338.5 -138.2 362.6 -165.4C320.4 -108.0 300.7 -52.2 305.3 -14.5Z" fill="#168b50"/>
<path d="M305.3 -14.5C317.3 50.5 353.6 103.3 380.7 136.5C340.0 80.6 308.3 15.7 305.3 -14.5Z" fill="#168b50"/>
<path d="M335.8 -14.1C321.1 -80.3 368.2 -134.9 391.8 -161.4C350.5 -105.4 331.4 -50.9 335.8 -14.1Z" fill="#168b50"/>
<path d="M335.8 -14.1C347.6 49.3 382.9 100.9 409.4 133.3C369.7 78.8 338.7 15.4 335.8 -14.1Z" fill="#168b50"/>
<path d="M366.3 -13.3C352.3 -76.4 397.2 -128.2 419.6 -153.4C380.3 -100.2 362.1 -48.3 366.3 -13.3Z" fill="#168b50"/>
<path d="M366.3 -13.3C377.5 47.0 411.2 96.0 436.4 126.9C398.6 75.0 369.1 14.8 366.3 -13.3Z" fill="#168b50"/>
<path d="M396.8 -12.1C383.9 -70.5 425.4 -118.5 446.1 -141.8C409.8 -92.5 393.0 -44.6 396.8 -12.1Z" fill="#168b50"/>
<path d="M396.8 -12.1C407.2 43.6 438.3 89.0 461.7 117.5C426.7 69.6 399.4 13.8 396.8 -12.1Z" fill="#168b50"/>
<path d="M427.4 -10.7C415.8 -62.9 452.9 -105.9 471.5 -126.8C439.0 -82.7 423.9 -39.7 427.4 -10.7Z" fill="#168b50"/>
<path d="M427.4 -10.7C436.7 39.3 464.5 79.9 485.4 105.5C454.1 62.5 429.7 12.6 427.4 -10.7Z" fill="#168b50"/>
<path d="M457.9 -8.9C447.9 -53.9 479.9 -90.9 495.9 -108.8C467.9 -70.9 454.9 -33.9 457.9 -8.9Z" fill="#168b50"/>
<path d="M457.9 -8.9C465.9 34.1 489.9 69.0 507.9 91.0C480.9 54.1 459.9 11.1 457.9 -8.9Z" fill="#168b50"/>
<path d="M488.4 -6.9C480.3 -43.6 506.3 -73.7 519.4 -88.4C496.6 -57.4 486.0 -27.3 488.4 -6.9Z" fill="#168b50"/>
<path d="M488.4 -6.9C494.9 28.1 514.5 56.7 529.2 74.6C507.2 44.4 490.1 9.4 488.4 -6.9Z" fill="#168b50"/>
<path d="M518.9 -4.7C512.8 -32.3 532.4 -55.0 542.2 -66.0C525.1 -42.7 517.1 -20.0 518.9 -4.7Z" fill="#168b50"/>
<path d="M518.9 -4.7C523.9 21.7 538.6 43.1 549.6 56.6C533.0 33.9 520.2 7.6 518.9 -4.7Z" fill="#168b50"/>
<path d="M549.5 -2.4C545.5 -20.4 558.3 -35.2 564.7 -42.3C553.5 -27.2 548.3 -12.4 549.5 -2.4Z" fill="#168b50"/>
<path d="M549.5 -2.4C552.7 14.8 562.3 28.8 569.5 37.6C558.7 22.8 550.3 5.6 549.5 -2.4Z" fill="#168b50"/>
</g>
<g transform="translate(2030 420) rotate(185)">
<path d="M0 0C147.5 -47.2 424.8 23.6 590 0" fill="none" stroke="#73d373" stroke-width="8" stroke-linecap="round"/>
<path d="M31.1 -2.4C27.0 -20.6 39.9 -35.5 46.4 -42.8C35.1 -27.4 29.8 -12.5 31.1 -2.4Z" fill="#17844d"/>
<path d="M31.1 -2.4C34.3 14.9 44.0 29.0 51.2 37.9C40.3 23.0 31.9 5.6 31.1 -2.4Z" fill="#17844d"/>
<path d="M62.1 -4.8C55.9 -32.7 75.8 -55.7 85.7 -66.9C68.3 -43.3 60.2 -20.3 62.1 -4.8Z" fill="#17844d"/>
<path d="M62.1 -4.8C67.1 21.9 82.0 43.6 93.1 57.3C76.4 34.3 63.3 7.6 62.1 -4.8Z" fill="#17844d"/>
<path d="M93.2 -7.0C84.9 -44.2 111.3 -74.7 124.5 -89.6C101.4 -58.2 90.7 -27.7 93.2 -7.0Z" fill="#17844d"/>
<path d="M93.2 -7.0C99.8 28.5 119.6 57.4 134.5 75.6C112.2 45.0 94.8 9.5 93.2 -7.0Z" fill="#17844d"/>
<path d="M124.2 -9.1C114.1 -54.7 146.5 -92.2 162.7 -110.4C134.3 -71.9 121.2 -34.4 124.2 -9.1Z" fill="#17844d"/>
<path d="M124.2 -9.1C132.3 34.5 156.6 70.0 174.9 92.3C147.5 54.8 126.2 11.2 124.2 -9.1Z" fill="#17844d"/>
<path d="M155.3 -10.9C143.5 -63.9 181.2 -107.5 200.0 -128.7C167.0 -83.9 151.7 -40.3 155.3 -10.9Z" fill="#17844d"/>
<path d="M155.3 -10.9C164.7 39.8 193.0 81.1 214.2 107.0C182.4 63.4 157.6 12.7 155.3 -10.9Z" fill="#17844d"/>
<path d="M186.3 -12.3C173.2 -71.6 215.3 -120.3 236.3 -144.0C199.5 -93.9 182.4 -45.2 186.3 -12.3Z" fill="#17844d"/>
<path d="M186.3 -12.3C196.8 44.2 228.4 90.3 252.1 119.3C216.6 70.6 188.9 14.0 186.3 -12.3Z" fill="#17844d"/>
<path d="M217.4 -13.5C203.1 -77.5 248.7 -130.2 271.4 -155.8C231.6 -101.7 213.1 -49.1 217.4 -13.5Z" fill="#17844d"/>
<path d="M217.4 -13.5C228.8 47.7 262.9 97.5 288.5 128.8C250.1 76.1 220.2 14.9 217.4 -13.5Z" fill="#17844d"/>
<path d="M248.4 -14.3C233.5 -81.6 281.3 -136.9 305.2 -163.8C263.4 -107.0 243.9 -51.7 248.4 -14.3Z" fill="#17844d"/>
<path d="M248.4 -14.3C260.4 50.0 296.3 102.3 323.2 135.2C282.8 79.9 251.4 15.6 248.4 -14.3Z" fill="#17844d"/>
<path d="M279.5 -14.7C264.2 -83.7 313.2 -140.4 337.7 -167.9C294.8 -109.7 274.9 -53.0 279.5 -14.7Z" fill="#17844d"/>
<path d="M279.5 -14.7C291.7 51.2 328.5 104.8 356.1 138.5C314.7 81.8 282.5 15.9 279.5 -14.7Z" fill="#17844d"/>
<path d="M310.5 -14.7C295.2 -83.7 344.2 -140.4 368.8 -167.9C325.8 -109.7 305.9 -53.0 310.5 -14.7Z" fill="#17844d"/>
<path d="M310.5 -14.7C322.8 51.2 359.6 104.8 387.1 138.5C345.8 81.8 313.6 15.9 310.5 -14.7Z" fill="#17844d"/>
<path d="M341.6 -14.3C326.6 -81.6 374.5 -136.9 398.4 -163.8C356.5 -107.0 337.1 -51.7 341.6 -14.3Z" fill="#17844d"/>
<path d="M341.6 -14.3C353.5 50.0 389.4 102.3 416.4 135.2C376.0 79.9 344.6 15.6 341.6 -14.3Z" fill="#17844d"/>
<path d="M372.6 -13.5C358.4 -77.5 403.9 -130.2 426.7 -155.8C386.9 -101.7 368.4 -49.1 372.6 -13.5Z" fill="#17844d"/>
<path d="M372.6 -13.5C384.0 47.7 418.2 97.5 443.8 128.8C405.4 76.1 375.5 14.9 372.6 -13.5Z" fill="#17844d"/>
<path d="M403.7 -12.3C390.5 -71.6 432.6 -120.3 453.7 -144.0C416.8 -93.9 399.7 -45.2 403.7 -12.3Z" fill="#17844d"/>
<path d="M403.7 -12.3C414.2 44.2 445.8 90.3 469.5 119.3C434.0 70.6 406.3 14.0 403.7 -12.3Z" fill="#17844d"/>
<path d="M434.7 -10.9C423.0 -63.9 460.7 -107.5 479.5 -128.7C446.5 -83.9 431.2 -40.3 434.7 -10.9Z" fill="#17844d"/>
<path d="M434.7 -10.9C444.2 39.8 472.4 81.1 493.7 107.0C461.8 63.4 437.1 12.7 434.7 -10.9Z" fill="#17844d"/>
<path d="M465.8 -9.1C455.7 -54.7 488.1 -92.2 504.3 -110.4C475.9 -71.9 462.7 -34.4 465.8 -9.1Z" fill="#17844d"/>
<path d="M465.8 -9.1C473.9 34.5 498.2 70.0 516.5 92.3C489.1 54.8 467.8 11.2 465.8 -9.1Z" fill="#17844d"/>
<path d="M496.8 -7.0C488.6 -44.2 515.0 -74.7 528.2 -89.6C505.1 -58.2 494.4 -27.7 496.8 -7.0Z" fill="#17844d"/>
<path d="M496.8 -7.0C503.4 28.5 523.3 57.4 538.1 75.6C515.8 45.0 498.5 9.5 496.8 -7.0Z" fill="#17844d"/>
<path d="M527.9 -4.8C521.7 -32.7 541.5 -55.7 551.5 -66.9C534.1 -43.3 526.0 -20.3 527.9 -4.8Z" fill="#17844d"/>
<path d="M527.9 -4.8C532.9 21.9 547.8 43.6 558.9 57.3C542.2 34.3 529.1 7.6 527.9 -4.8Z" fill="#17844d"/>
<path d="M558.9 -2.4C554.9 -20.6 567.8 -35.5 574.3 -42.8C563.0 -27.4 557.7 -12.5 558.9 -2.4Z" fill="#17844d"/>
<path d="M558.9 -2.4C562.2 14.9 571.9 29.0 579.1 37.9C568.2 23.0 559.8 5.6 558.9 -2.4Z" fill="#17844d"/>
</g>
<g transform="rotate(-28 162 880)"><path d="M162 880C-42 639.1 -18 317.9 162 150C342 317.9 366 639.1 162 880Z" fill="#249b55"/><g fill="none" stroke="#83df76" stroke-width="5" stroke-linecap="round" opacity=".74"><path d="M162 880V150"/><path d="M162 813.6L118.4 831.6M162 813.6L205.6 831.6"/><path d="M162 747.3L78.3 765.3M162 747.3L245.7 765.3"/><path d="M162 680.9L45.0 698.9M162 680.9L279.0 698.9"/><path d="M162 614.5L21.2 632.5M162 614.5L302.8 632.5"/><path d="M162 548.2L8.8 566.2M162 548.2L315.2 566.2"/><path d="M162 481.8L8.8 499.8M162 481.8L315.2 499.8"/><path d="M162 415.5L21.2 433.5M162 415.5L302.8 433.5"/><path d="M162 349.1L45.0 367.1M162 349.1L279.0 367.1"/><path d="M162 282.7L78.3 300.7M162 282.7L245.7 300.7"/><path d="M162 216.4L118.4 234.4M162 216.4L205.6 234.4"/></g></g>
<g transform="rotate(-17 388 930)"><path d="M388 930C204 728.7 228 460.3 388 320C548 460.3 572 728.7 388 930Z" fill="#39ad5e"/><g fill="none" stroke="#9bea82" stroke-width="5" stroke-linecap="round" opacity=".74"><path d="M388 930V320"/><path d="M388 874.5L349.2 892.5M388 874.5L426.8 892.5"/><path d="M388 819.1L313.6 837.1M388 819.1L462.4 837.1"/><path d="M388 763.6L284.0 781.6M388 763.6L492.0 781.6"/><path d="M388 708.2L262.8 726.2M388 708.2L513.2 726.2"/><path d="M388 652.7L251.8 670.7M388 652.7L524.2 670.7"/><path d="M388 597.3L251.8 615.3M388 597.3L524.2 615.3"/><path d="M388 541.8L262.8 559.8M388 541.8L513.2 559.8"/><path d="M388 486.4L284.0 504.4M388 486.4L492.0 504.4"/><path d="M388 430.9L313.6 448.9M388 430.9L462.4 448.9"/><path d="M388 375.5L349.2 393.5M388 375.5L426.8 393.5"/></g></g>
<g transform="rotate(27 1762 900)"><path d="M1762 900C1553 662.4 1577 345.6 1762 180C1947 345.6 1971 662.4 1762 900Z" fill="#21934f"/><g fill="none" stroke="#79da71" stroke-width="5" stroke-linecap="round" opacity=".74"><path d="M1762 900V180"/><path d="M1762 834.5L1717.2 852.5M1762 834.5L1806.8 852.5"/><path d="M1762 769.1L1676.0 787.1M1762 769.1L1848.0 787.1"/><path d="M1762 703.6L1641.8 721.6M1762 703.6L1882.2 721.6"/><path d="M1762 638.2L1617.3 656.2M1762 638.2L1906.7 656.2"/><path d="M1762 572.7L1604.5 590.7M1762 572.7L1919.5 590.7"/><path d="M1762 507.3L1604.5 525.3M1762 507.3L1919.5 525.3"/><path d="M1762 441.8L1617.3 459.8M1762 441.8L1906.7 459.8"/><path d="M1762 376.4L1641.8 394.4M1762 376.4L1882.2 394.4"/><path d="M1762 310.9L1676.0 328.9M1762 310.9L1848.0 328.9"/><path d="M1762 245.5L1717.2 263.5M1762 245.5L1806.8 263.5"/></g></g>
<g transform="rotate(15 1542 945)"><path d="M1542 945C1363 750.3 1387 490.7 1542 355C1697 490.7 1721 750.3 1542 945Z" fill="#38a85c"/><g fill="none" stroke="#96e57d" stroke-width="5" stroke-linecap="round" opacity=".74"><path d="M1542 945V355"/><path d="M1542 891.4L1504.4 909.4M1542 891.4L1579.6 909.4"/><path d="M1542 837.7L1469.9 855.7M1542 837.7L1614.1 855.7"/><path d="M1542 784.1L1441.3 802.1M1542 784.1L1642.7 802.1"/><path d="M1542 730.5L1420.7 748.5M1542 730.5L1663.3 748.5"/><path d="M1542 676.8L1410.1 694.8M1542 676.8L1673.9 694.8"/><path d="M1542 623.2L1410.1 641.2M1542 623.2L1673.9 641.2"/><path d="M1542 569.5L1420.7 587.5M1542 569.5L1663.3 587.5"/><path d="M1542 515.9L1441.3 533.9M1542 515.9L1642.7 533.9"/><path d="M1542 462.3L1469.9 480.3M1542 462.3L1614.1 480.3"/><path d="M1542 408.6L1504.4 426.6M1542 408.6L1579.6 426.6"/></g></g>
<g transform="translate(230 776) rotate(-43) scale(1.34)"><path fill-rule="evenodd" d="M0 235C-120 205-176 116-144 30C-120-34-56-63 0-18C56-63 120-34 144 30C176 116 120 205 0 235Z M-90 48C-67 22-42 22-29 54C-47 77-69 78-90 48Z M90 48C67 22 42 22 29 54C47 77 69 78 90 48Z M-119 107C-91 81-61 88-51 122C-74 143-99 137-119 107Z M119 107C91 81 61 88 51 122C74 143 99 137 119 107Z M-92 168C-67 144-42 151-35 183C-57 200-77 193-92 168Z M92 168C67 144 42 151 35 183C57 200 77 193 92 168Z M-2 32L-152 1L-149 26Z M2 32L152 1L149 26Z M-2 86L-167 68L-162 94Z M2 86L167 68L162 94Z M-2 143L-144 151L-137 177Z M2 143L144 151L137 177Z" fill="#2bad59"/><path d="M0 252V-18M0 50C-44 74-77 105-111 145M0 50C44 74 77 105 111 145M0 112C-34 137-54 170-67 207M0 112C34 137 54 170 67 207" fill="none" stroke="#91eb7c" stroke-width="5" stroke-linecap="round" opacity=".72"/></g>
<g transform="translate(1690 774) rotate(42) scale(1.38)"><path fill-rule="evenodd" d="M0 235C-120 205-176 116-144 30C-120-34-56-63 0-18C56-63 120-34 144 30C176 116 120 205 0 235Z M-90 48C-67 22-42 22-29 54C-47 77-69 78-90 48Z M90 48C67 22 42 22 29 54C47 77 69 78 90 48Z M-119 107C-91 81-61 88-51 122C-74 143-99 137-119 107Z M119 107C91 81 61 88 51 122C74 143 99 137 119 107Z M-92 168C-67 144-42 151-35 183C-57 200-77 193-92 168Z M92 168C67 144 42 151 35 183C57 200 77 193 92 168Z M-2 32L-152 1L-149 26Z M2 32L152 1L149 26Z M-2 86L-167 68L-162 94Z M2 86L167 68L162 94Z M-2 143L-144 151L-137 177Z M2 143L144 151L137 177Z" fill="#269f55"/><path d="M0 252V-18M0 50C-44 74-77 105-111 145M0 50C44 74 77 105 111 145M0 112C-34 137-54 170-67 207M0 112C34 137 54 170 67 207" fill="none" stroke="#89e778" stroke-width="5" stroke-linecap="round" opacity=".72"/></g>
<g transform="translate(80 505) rotate(-67) scale(0.92)"><path fill-rule="evenodd" d="M0 235C-120 205-176 116-144 30C-120-34-56-63 0-18C56-63 120-34 144 30C176 116 120 205 0 235Z M-90 48C-67 22-42 22-29 54C-47 77-69 78-90 48Z M90 48C67 22 42 22 29 54C47 77 69 78 90 48Z M-119 107C-91 81-61 88-51 122C-74 143-99 137-119 107Z M119 107C91 81 61 88 51 122C74 143 99 137 119 107Z M-92 168C-67 144-42 151-35 183C-57 200-77 193-92 168Z M92 168C67 144 42 151 35 183C57 200 77 193 92 168Z M-2 32L-152 1L-149 26Z M2 32L152 1L149 26Z M-2 86L-167 68L-162 94Z M2 86L167 68L162 94Z M-2 143L-144 151L-137 177Z M2 143L144 151L137 177Z" fill="#1d914f"/><path d="M0 252V-18M0 50C-44 74-77 105-111 145M0 50C44 74 77 105 111 145M0 112C-34 137-54 170-67 207M0 112C34 137 54 170 67 207" fill="none" stroke="#7adb73" stroke-width="5" stroke-linecap="round" opacity=".72"/></g>
<g transform="translate(1840 510) rotate(66) scale(0.94)"><path fill-rule="evenodd" d="M0 235C-120 205-176 116-144 30C-120-34-56-63 0-18C56-63 120-34 144 30C176 116 120 205 0 235Z M-90 48C-67 22-42 22-29 54C-47 77-69 78-90 48Z M90 48C67 22 42 22 29 54C47 77 69 78 90 48Z M-119 107C-91 81-61 88-51 122C-74 143-99 137-119 107Z M119 107C91 81 61 88 51 122C74 143 99 137 119 107Z M-92 168C-67 144-42 151-35 183C-57 200-77 193-92 168Z M92 168C67 144 42 151 35 183C57 200 77 193 92 168Z M-2 32L-152 1L-149 26Z M2 32L152 1L149 26Z M-2 86L-167 68L-162 94Z M2 86L167 68L162 94Z M-2 143L-144 151L-137 177Z M2 143L144 151L137 177Z" fill="#1b8c4d"/><path d="M0 252V-18M0 50C-44 74-77 105-111 145M0 50C44 74 77 105 111 145M0 112C-34 137-54 170-67 207M0 112C34 137 54 170 67 207" fill="none" stroke="#76d771" stroke-width="5" stroke-linecap="round" opacity=".72"/></g>
<g transform="translate(35 1010) rotate(-62) scale(1.55)"><path fill-rule="evenodd" d="M0 235C-120 205-176 116-144 30C-120-34-56-63 0-18C56-63 120-34 144 30C176 116 120 205 0 235Z M-90 48C-67 22-42 22-29 54C-47 77-69 78-90 48Z M90 48C67 22 42 22 29 54C47 77 69 78 90 48Z M-119 107C-91 81-61 88-51 122C-74 143-99 137-119 107Z M119 107C91 81 61 88 51 122C74 143 99 137 119 107Z M-92 168C-67 144-42 151-35 183C-57 200-77 193-92 168Z M92 168C67 144 42 151 35 183C57 200 77 193 92 168Z M-2 32L-152 1L-149 26Z M2 32L152 1L149 26Z M-2 86L-167 68L-162 94Z M2 86L167 68L162 94Z M-2 143L-144 151L-137 177Z M2 143L144 151L137 177Z" fill="#117447"/><path d="M0 252V-18M0 50C-44 74-77 105-111 145M0 50C44 74 77 105 111 145M0 112C-34 137-54 170-67 207M0 112C34 137 54 170 67 207" fill="none" stroke="#60c868" stroke-width="5" stroke-linecap="round" opacity=".72"/></g>
<g transform="translate(1885 1018) rotate(61) scale(1.52)"><path fill-rule="evenodd" d="M0 235C-120 205-176 116-144 30C-120-34-56-63 0-18C56-63 120-34 144 30C176 116 120 205 0 235Z M-90 48C-67 22-42 22-29 54C-47 77-69 78-90 48Z M90 48C67 22 42 22 29 54C47 77 69 78 90 48Z M-119 107C-91 81-61 88-51 122C-74 143-99 137-119 107Z M119 107C91 81 61 88 51 122C74 143 99 137 119 107Z M-92 168C-67 144-42 151-35 183C-57 200-77 193-92 168Z M92 168C67 144 42 151 35 183C57 200 77 193 92 168Z M-2 32L-152 1L-149 26Z M2 32L152 1L149 26Z M-2 86L-167 68L-162 94Z M2 86L167 68L162 94Z M-2 143L-144 151L-137 177Z M2 143L144 151L137 177Z" fill="#0f7045"/><path d="M0 252V-18M0 50C-44 74-77 105-111 145M0 50C44 74 77 105 111 145M0 112C-34 137-54 170-67 207M0 112C34 137 54 170 67 207" fill="none" stroke="#5fc56a" stroke-width="5" stroke-linecap="round" opacity=".72"/></g>
<g transform="translate(355 787) rotate(-10)"><path d="M0 5C-94-58-126 42-45 71C-115 116-36 184 18 102C55 190 144 125 75 65C163 31 111-63 28-15C21-72-34-78 0 5Z" fill="#ff5e70" stroke="#9e294d" stroke-width="7"/><path d="M7 8C-22 1-31 35-8 49C18 65 43 39 30 16C24 7 16 5 7 8Z" fill="#ffd26d"/><path d="M22 35c68 9 105 39 130 88" fill="none" stroke="#ffd47b" stroke-width="9" stroke-linecap="round"/><g fill="#fff0a6"><circle cx="151" cy="123" r="8"/><circle cx="134" cy="108" r="6"/><circle cx="154" cy="104" r="5"/></g></g>
<g transform="translate(1470 772) rotate(8)"><path d="M-38 112C12 72 42 22 55-53C97 11 83 70 31 121Z" fill="#f5b03c"/><path d="M14 91C60 40 118 12 188 9C151 63 98 93 14 107Z" fill="#ff713f"/><path d="M2 102C58 92 111 102 161 135C95 148 44 136 2 102Z" fill="#f7d252"/><path d="M-16 103C32 88 70 89 105 104C61 120 19 121-16 103Z" fill="#315fa6"/><path d="M-20 106C-13 166-32 212-77 250" fill="none" stroke="#4e9b55" stroke-width="17" stroke-linecap="round"/></g>
<g><g transform="translate(358.2 1025.2) rotate(-55.8) scale(0.52)"><path fill-rule="evenodd" d="M0 235C-120 205-176 116-144 30C-120-34-56-63 0-18C56-63 120-34 144 30C176 116 120 205 0 235Z M-90 48C-67 22-42 22-29 54C-47 77-69 78-90 48Z M90 48C67 22 42 22 29 54C47 77 69 78 90 48Z M-119 107C-91 81-61 88-51 122C-74 143-99 137-119 107Z M119 107C91 81 61 88 51 122C74 143 99 137 119 107Z M-92 168C-67 144-42 151-35 183C-57 200-77 193-92 168Z M92 168C67 144 42 151 35 183C57 200 77 193 92 168Z M-2 32L-152 1L-149 26Z M2 32L152 1L149 26Z M-2 86L-167 68L-162 94Z M2 86L167 68L162 94Z M-2 143L-144 151L-137 177Z M2 143L144 151L137 177Z" fill="#17804e"/><path d="M0 252V-18M0 50C-44 74-77 105-111 145M0 50C44 74 77 105 111 145M0 112C-34 137-54 170-67 207M0 112C34 137 54 170 67 207" fill="none" stroke="#78d97b" stroke-width="5" stroke-linecap="round" opacity=".72"/></g>
<g transform="translate(1601.0 905.4) rotate(-2.7) scale(0.74)"><path fill-rule="evenodd" d="M0 235C-120 205-176 116-144 30C-120-34-56-63 0-18C56-63 120-34 144 30C176 116 120 205 0 235Z M-90 48C-67 22-42 22-29 54C-47 77-69 78-90 48Z M90 48C67 22 42 22 29 54C47 77 69 78 90 48Z M-119 107C-91 81-61 88-51 122C-74 143-99 137-119 107Z M119 107C91 81 61 88 51 122C74 143 99 137 119 107Z M-92 168C-67 144-42 151-35 183C-57 200-77 193-92 168Z M92 168C67 144 42 151 35 183C57 200 77 193 92 168Z M-2 32L-152 1L-149 26Z M2 32L152 1L149 26Z M-2 86L-167 68L-162 94Z M2 86L167 68L162 94Z M-2 143L-144 151L-137 177Z M2 143L144 151L137 177Z" fill="#22945a"/><path d="M0 252V-18M0 50C-44 74-77 105-111 145M0 50C44 74 77 105 111 145M0 112C-34 137-54 170-67 207M0 112C34 137 54 170 67 207" fill="none" stroke="#78d97b" stroke-width="5" stroke-linecap="round" opacity=".72"/></g>
<g transform="translate(508.7 941.5) rotate(-53.5) scale(0.40)"><path fill-rule="evenodd" d="M0 235C-120 205-176 116-144 30C-120-34-56-63 0-18C56-63 120-34 144 30C176 116 120 205 0 235Z M-90 48C-67 22-42 22-29 54C-47 77-69 78-90 48Z M90 48C67 22 42 22 29 54C47 77 69 78 90 48Z M-119 107C-91 81-61 88-51 122C-74 143-99 137-119 107Z M119 107C91 81 61 88 51 122C74 143 99 137 119 107Z M-92 168C-67 144-42 151-35 183C-57 200-77 193-92 168Z M92 168C67 144 42 151 35 183C57 200 77 193 92 168Z M-2 32L-152 1L-149 26Z M2 32L152 1L149 26Z M-2 86L-167 68L-162 94Z M2 86L167 68L162 94Z M-2 143L-144 151L-137 177Z M2 143L144 151L137 177Z" fill="#38a861"/><path d="M0 252V-18M0 50C-44 74-77 105-111 145M0 50C44 74 77 105 111 145M0 112C-34 137-54 170-67 207M0 112C34 137 54 170 67 207" fill="none" stroke="#78d97b" stroke-width="5" stroke-linecap="round" opacity=".72"/></g>
<g transform="translate(1626.4 887.3) rotate(20.8) scale(0.46)"><path fill-rule="evenodd" d="M0 235C-120 205-176 116-144 30C-120-34-56-63 0-18C56-63 120-34 144 30C176 116 120 205 0 235Z M-90 48C-67 22-42 22-29 54C-47 77-69 78-90 48Z M90 48C67 22 42 22 29 54C47 77 69 78 90 48Z M-119 107C-91 81-61 88-51 122C-74 143-99 137-119 107Z M119 107C91 81 61 88 51 122C74 143 99 137 119 107Z M-92 168C-67 144-42 151-35 183C-57 200-77 193-92 168Z M92 168C67 144 42 151 35 183C57 200 77 193 92 168Z M-2 32L-152 1L-149 26Z M2 32L152 1L149 26Z M-2 86L-167 68L-162 94Z M2 86L167 68L162 94Z M-2 143L-144 151L-137 177Z M2 143L144 151L137 177Z" fill="#126342"/><path d="M0 252V-18M0 50C-44 74-77 105-111 145M0 50C44 74 77 105 111 145M0 112C-34 137-54 170-67 207M0 112C34 137 54 170 67 207" fill="none" stroke="#78d97b" stroke-width="5" stroke-linecap="round" opacity=".72"/></g>
<g transform="translate(197.9 994.6) rotate(-47.4) scale(0.73)"><path fill-rule="evenodd" d="M0 235C-120 205-176 116-144 30C-120-34-56-63 0-18C56-63 120-34 144 30C176 116 120 205 0 235Z M-90 48C-67 22-42 22-29 54C-47 77-69 78-90 48Z M90 48C67 22 42 22 29 54C47 77 69 78 90 48Z M-119 107C-91 81-61 88-51 122C-74 143-99 137-119 107Z M119 107C91 81 61 88 51 122C74 143 99 137 119 107Z M-92 168C-67 144-42 151-35 183C-57 200-77 193-92 168Z M92 168C67 144 42 151 35 183C57 200 77 193 92 168Z M-2 32L-152 1L-149 26Z M2 32L152 1L149 26Z M-2 86L-167 68L-162 94Z M2 86L167 68L162 94Z M-2 143L-144 151L-137 177Z M2 143L144 151L137 177Z" fill="#17804e"/><path d="M0 252V-18M0 50C-44 74-77 105-111 145M0 50C44 74 77 105 111 145M0 112C-34 137-54 170-67 207M0 112C34 137 54 170 67 207" fill="none" stroke="#78d97b" stroke-width="5" stroke-linecap="round" opacity=".72"/></g>
<g transform="translate(1552.2 1070.5) rotate(58.3) scale(0.47)"><path fill-rule="evenodd" d="M0 235C-120 205-176 116-144 30C-120-34-56-63 0-18C56-63 120-34 144 30C176 116 120 205 0 235Z M-90 48C-67 22-42 22-29 54C-47 77-69 78-90 48Z M90 48C67 22 42 22 29 54C47 77 69 78 90 48Z M-119 107C-91 81-61 88-51 122C-74 143-99 137-119 107Z M119 107C91 81 61 88 51 122C74 143 99 137 119 107Z M-92 168C-67 144-42 151-35 183C-57 200-77 193-92 168Z M92 168C67 144 42 151 35 183C57 200 77 193 92 168Z M-2 32L-152 1L-149 26Z M2 32L152 1L149 26Z M-2 86L-167 68L-162 94Z M2 86L167 68L162 94Z M-2 143L-144 151L-137 177Z M2 143L144 151L137 177Z" fill="#22945a"/><path d="M0 252V-18M0 50C-44 74-77 105-111 145M0 50C44 74 77 105 111 145M0 112C-34 137-54 170-67 207M0 112C34 137 54 170 67 207" fill="none" stroke="#78d97b" stroke-width="5" stroke-linecap="round" opacity=".72"/></g>
<g transform="translate(462.2 1087.4) rotate(-22.8) scale(0.40)"><path fill-rule="evenodd" d="M0 235C-120 205-176 116-144 30C-120-34-56-63 0-18C56-63 120-34 144 30C176 116 120 205 0 235Z M-90 48C-67 22-42 22-29 54C-47 77-69 78-90 48Z M90 48C67 22 42 22 29 54C47 77 69 78 90 48Z M-119 107C-91 81-61 88-51 122C-74 143-99 137-119 107Z M119 107C91 81 61 88 51 122C74 143 99 137 119 107Z M-92 168C-67 144-42 151-35 183C-57 200-77 193-92 168Z M92 168C67 144 42 151 35 183C57 200 77 193 92 168Z M-2 32L-152 1L-149 26Z M2 32L152 1L149 26Z M-2 86L-167 68L-162 94Z M2 86L167 68L162 94Z M-2 143L-144 151L-137 177Z M2 143L144 151L137 177Z" fill="#38a861"/><path d="M0 252V-18M0 50C-44 74-77 105-111 145M0 50C44 74 77 105 111 145M0 112C-34 137-54 170-67 207M0 112C34 137 54 170 67 207" fill="none" stroke="#78d97b" stroke-width="5" stroke-linecap="round" opacity=".72"/></g>
<g transform="translate(1786.2 1039.8) rotate(-12.1) scale(0.48)"><path fill-rule="evenodd" d="M0 235C-120 205-176 116-144 30C-120-34-56-63 0-18C56-63 120-34 144 30C176 116 120 205 0 235Z M-90 48C-67 22-42 22-29 54C-47 77-69 78-90 48Z M90 48C67 22 42 22 29 54C47 77 69 78 90 48Z M-119 107C-91 81-61 88-51 122C-74 143-99 137-119 107Z M119 107C91 81 61 88 51 122C74 143 99 137 119 107Z M-92 168C-67 144-42 151-35 183C-57 200-77 193-92 168Z M92 168C67 144 42 151 35 183C57 200 77 193 92 168Z M-2 32L-152 1L-149 26Z M2 32L152 1L149 26Z M-2 86L-167 68L-162 94Z M2 86L167 68L162 94Z M-2 143L-144 151L-137 177Z M2 143L144 151L137 177Z" fill="#126342"/><path d="M0 252V-18M0 50C-44 74-77 105-111 145M0 50C44 74 77 105 111 145M0 112C-34 137-54 170-67 207M0 112C34 137 54 170 67 207" fill="none" stroke="#78d97b" stroke-width="5" stroke-linecap="round" opacity=".72"/></g>
<g transform="translate(559.2 921.3) rotate(7.8) scale(0.51)"><path fill-rule="evenodd" d="M0 235C-120 205-176 116-144 30C-120-34-56-63 0-18C56-63 120-34 144 30C176 116 120 205 0 235Z M-90 48C-67 22-42 22-29 54C-47 77-69 78-90 48Z M90 48C67 22 42 22 29 54C47 77 69 78 90 48Z M-119 107C-91 81-61 88-51 122C-74 143-99 137-119 107Z M119 107C91 81 61 88 51 122C74 143 99 137 119 107Z M-92 168C-67 144-42 151-35 183C-57 200-77 193-92 168Z M92 168C67 144 42 151 35 183C57 200 77 193 92 168Z M-2 32L-152 1L-149 26Z M2 32L152 1L149 26Z M-2 86L-167 68L-162 94Z M2 86L167 68L162 94Z M-2 143L-144 151L-137 177Z M2 143L144 151L137 177Z" fill="#17804e"/><path d="M0 252V-18M0 50C-44 74-77 105-111 145M0 50C44 74 77 105 111 145M0 112C-34 137-54 170-67 207M0 112C34 137 54 170 67 207" fill="none" stroke="#78d97b" stroke-width="5" stroke-linecap="round" opacity=".72"/></g>
<g transform="translate(1914.2 1035.4) rotate(46.8) scale(0.69)"><path fill-rule="evenodd" d="M0 235C-120 205-176 116-144 30C-120-34-56-63 0-18C56-63 120-34 144 30C176 116 120 205 0 235Z M-90 48C-67 22-42 22-29 54C-47 77-69 78-90 48Z M90 48C67 22 42 22 29 54C47 77 69 78 90 48Z M-119 107C-91 81-61 88-51 122C-74 143-99 137-119 107Z M119 107C91 81 61 88 51 122C74 143 99 137 119 107Z M-92 168C-67 144-42 151-35 183C-57 200-77 193-92 168Z M92 168C67 144 42 151 35 183C57 200 77 193 92 168Z M-2 32L-152 1L-149 26Z M2 32L152 1L149 26Z M-2 86L-167 68L-162 94Z M2 86L167 68L162 94Z M-2 143L-144 151L-137 177Z M2 143L144 151L137 177Z" fill="#22945a"/><path d="M0 252V-18M0 50C-44 74-77 105-111 145M0 50C44 74 77 105 111 145M0 112C-34 137-54 170-67 207M0 112C34 137 54 170 67 207" fill="none" stroke="#78d97b" stroke-width="5" stroke-linecap="round" opacity=".72"/></g>
<g transform="translate(549.8 994.3) rotate(-17.8) scale(0.56)"><path fill-rule="evenodd" d="M0 235C-120 205-176 116-144 30C-120-34-56-63 0-18C56-63 120-34 144 30C176 116 120 205 0 235Z M-90 48C-67 22-42 22-29 54C-47 77-69 78-90 48Z M90 48C67 22 42 22 29 54C47 77 69 78 90 48Z M-119 107C-91 81-61 88-51 122C-74 143-99 137-119 107Z M119 107C91 81 61 88 51 122C74 143 99 137 119 107Z M-92 168C-67 144-42 151-35 183C-57 200-77 193-92 168Z M92 168C67 144 42 151 35 183C57 200 77 193 92 168Z M-2 32L-152 1L-149 26Z M2 32L152 1L149 26Z M-2 86L-167 68L-162 94Z M2 86L167 68L162 94Z M-2 143L-144 151L-137 177Z M2 143L144 151L137 177Z" fill="#38a861"/><path d="M0 252V-18M0 50C-44 74-77 105-111 145M0 50C44 74 77 105 111 145M0 112C-34 137-54 170-67 207M0 112C34 137 54 170 67 207" fill="none" stroke="#78d97b" stroke-width="5" stroke-linecap="round" opacity=".72"/></g>
<g transform="translate(1674.7 859.0) rotate(4.6) scale(0.36)"><path fill-rule="evenodd" d="M0 235C-120 205-176 116-144 30C-120-34-56-63 0-18C56-63 120-34 144 30C176 116 120 205 0 235Z M-90 48C-67 22-42 22-29 54C-47 77-69 78-90 48Z M90 48C67 22 42 22 29 54C47 77 69 78 90 48Z M-119 107C-91 81-61 88-51 122C-74 143-99 137-119 107Z M119 107C91 81 61 88 51 122C74 143 99 137 119 107Z M-92 168C-67 144-42 151-35 183C-57 200-77 193-92 168Z M92 168C67 144 42 151 35 183C57 200 77 193 92 168Z M-2 32L-152 1L-149 26Z M2 32L152 1L149 26Z M-2 86L-167 68L-162 94Z M2 86L167 68L162 94Z M-2 143L-144 151L-137 177Z M2 143L144 151L137 177Z" fill="#126342"/><path d="M0 252V-18M0 50C-44 74-77 105-111 145M0 50C44 74 77 105 111 145M0 112C-34 137-54 170-67 207M0 112C34 137 54 170 67 207" fill="none" stroke="#78d97b" stroke-width="5" stroke-linecap="round" opacity=".72"/></g>
<g transform="translate(355.4 974.3) rotate(-16.0) scale(0.53)"><path fill-rule="evenodd" d="M0 235C-120 205-176 116-144 30C-120-34-56-63 0-18C56-63 120-34 144 30C176 116 120 205 0 235Z M-90 48C-67 22-42 22-29 54C-47 77-69 78-90 48Z M90 48C67 22 42 22 29 54C47 77 69 78 90 48Z M-119 107C-91 81-61 88-51 122C-74 143-99 137-119 107Z M119 107C91 81 61 88 51 122C74 143 99 137 119 107Z M-92 168C-67 144-42 151-35 183C-57 200-77 193-92 168Z M92 168C67 144 42 151 35 183C57 200 77 193 92 168Z M-2 32L-152 1L-149 26Z M2 32L152 1L149 26Z M-2 86L-167 68L-162 94Z M2 86L167 68L162 94Z M-2 143L-144 151L-137 177Z M2 143L144 151L137 177Z" fill="#17804e"/><path d="M0 252V-18M0 50C-44 74-77 105-111 145M0 50C44 74 77 105 111 145M0 112C-34 137-54 170-67 207M0 112C34 137 54 170 67 207" fill="none" stroke="#78d97b" stroke-width="5" stroke-linecap="round" opacity=".72"/></g>
<g transform="translate(1507.6 953.9) rotate(-1.7) scale(0.61)"><path fill-rule="evenodd" d="M0 235C-120 205-176 116-144 30C-120-34-56-63 0-18C56-63 120-34 144 30C176 116 120 205 0 235Z M-90 48C-67 22-42 22-29 54C-47 77-69 78-90 48Z M90 48C67 22 42 22 29 54C47 77 69 78 90 48Z M-119 107C-91 81-61 88-51 122C-74 143-99 137-119 107Z M119 107C91 81 61 88 51 122C74 143 99 137 119 107Z M-92 168C-67 144-42 151-35 183C-57 200-77 193-92 168Z M92 168C67 144 42 151 35 183C57 200 77 193 92 168Z M-2 32L-152 1L-149 26Z M2 32L152 1L149 26Z M-2 86L-167 68L-162 94Z M2 86L167 68L162 94Z M-2 143L-144 151L-137 177Z M2 143L144 151L137 177Z" fill="#22945a"/><path d="M0 252V-18M0 50C-44 74-77 105-111 145M0 50C44 74 77 105 111 145M0 112C-34 137-54 170-67 207M0 112C34 137 54 170 67 207" fill="none" stroke="#78d97b" stroke-width="5" stroke-linecap="round" opacity=".72"/></g>
<g transform="translate(248.0 966.6) rotate(-24.3) scale(0.72)"><path fill-rule="evenodd" d="M0 235C-120 205-176 116-144 30C-120-34-56-63 0-18C56-63 120-34 144 30C176 116 120 205 0 235Z M-90 48C-67 22-42 22-29 54C-47 77-69 78-90 48Z M90 48C67 22 42 22 29 54C47 77 69 78 90 48Z M-119 107C-91 81-61 88-51 122C-74 143-99 137-119 107Z M119 107C91 81 61 88 51 122C74 143 99 137 119 107Z M-92 168C-67 144-42 151-35 183C-57 200-77 193-92 168Z M92 168C67 144 42 151 35 183C57 200 77 193 92 168Z M-2 32L-152 1L-149 26Z M2 32L152 1L149 26Z M-2 86L-167 68L-162 94Z M2 86L167 68L162 94Z M-2 143L-144 151L-137 177Z M2 143L144 151L137 177Z" fill="#38a861"/><path d="M0 252V-18M0 50C-44 74-77 105-111 145M0 50C44 74 77 105 111 145M0 112C-34 137-54 170-67 207M0 112C34 137 54 170 67 207" fill="none" stroke="#78d97b" stroke-width="5" stroke-linecap="round" opacity=".72"/></g>
<g transform="translate(1436.4 860.6) rotate(55.9) scale(0.72)"><path fill-rule="evenodd" d="M0 235C-120 205-176 116-144 30C-120-34-56-63 0-18C56-63 120-34 144 30C176 116 120 205 0 235Z M-90 48C-67 22-42 22-29 54C-47 77-69 78-90 48Z M90 48C67 22 42 22 29 54C47 77 69 78 90 48Z M-119 107C-91 81-61 88-51 122C-74 143-99 137-119 107Z M119 107C91 81 61 88 51 122C74 143 99 137 119 107Z M-92 168C-67 144-42 151-35 183C-57 200-77 193-92 168Z M92 168C67 144 42 151 35 183C57 200 77 193 92 168Z M-2 32L-152 1L-149 26Z M2 32L152 1L149 26Z M-2 86L-167 68L-162 94Z M2 86L167 68L162 94Z M-2 143L-144 151L-137 177Z M2 143L144 151L137 177Z" fill="#126342"/><path d="M0 252V-18M0 50C-44 74-77 105-111 145M0 50C44 74 77 105 111 145M0 112C-34 137-54 170-67 207M0 112C34 137 54 170 67 207" fill="none" stroke="#78d97b" stroke-width="5" stroke-linecap="round" opacity=".72"/></g>
<g transform="translate(294.8 877.0) rotate(4.6) scale(0.74)"><path fill-rule="evenodd" d="M0 235C-120 205-176 116-144 30C-120-34-56-63 0-18C56-63 120-34 144 30C176 116 120 205 0 235Z M-90 48C-67 22-42 22-29 54C-47 77-69 78-90 48Z M90 48C67 22 42 22 29 54C47 77 69 78 90 48Z M-119 107C-91 81-61 88-51 122C-74 143-99 137-119 107Z M119 107C91 81 61 88 51 122C74 143 99 137 119 107Z M-92 168C-67 144-42 151-35 183C-57 200-77 193-92 168Z M92 168C67 144 42 151 35 183C57 200 77 193 92 168Z M-2 32L-152 1L-149 26Z M2 32L152 1L149 26Z M-2 86L-167 68L-162 94Z M2 86L167 68L162 94Z M-2 143L-144 151L-137 177Z M2 143L144 151L137 177Z" fill="#17804e"/><path d="M0 252V-18M0 50C-44 74-77 105-111 145M0 50C44 74 77 105 111 145M0 112C-34 137-54 170-67 207M0 112C34 137 54 170 67 207" fill="none" stroke="#78d97b" stroke-width="5" stroke-linecap="round" opacity=".72"/></g>
<g transform="translate(1384.3 1047.5) rotate(7.6) scale(0.76)"><path fill-rule="evenodd" d="M0 235C-120 205-176 116-144 30C-120-34-56-63 0-18C56-63 120-34 144 30C176 116 120 205 0 235Z M-90 48C-67 22-42 22-29 54C-47 77-69 78-90 48Z M90 48C67 22 42 22 29 54C47 77 69 78 90 48Z M-119 107C-91 81-61 88-51 122C-74 143-99 137-119 107Z M119 107C91 81 61 88 51 122C74 143 99 137 119 107Z M-92 168C-67 144-42 151-35 183C-57 200-77 193-92 168Z M92 168C67 144 42 151 35 183C57 200 77 193 92 168Z M-2 32L-152 1L-149 26Z M2 32L152 1L149 26Z M-2 86L-167 68L-162 94Z M2 86L167 68L162 94Z M-2 143L-144 151L-137 177Z M2 143L144 151L137 177Z" fill="#22945a"/><path d="M0 252V-18M0 50C-44 74-77 105-111 145M0 50C44 74 77 105 111 145M0 112C-34 137-54 170-67 207M0 112C34 137 54 170 67 207" fill="none" stroke="#78d97b" stroke-width="5" stroke-linecap="round" opacity=".72"/></g></g>
<g><circle cx="649.8" cy="329.2" r="4.0" fill="#efff9a" opacity="0.92" filter="url(#fireflyGlow)"/>
<circle cx="1512.7" cy="754.8" r="4.4" fill="#efff9a" opacity="0.92" filter="url(#fireflyGlow)"/>
<circle cx="1452.6" cy="651.2" r="3.9" fill="#efff9a" opacity="0.88" filter="url(#fireflyGlow)"/>
<circle cx="1443.0" cy="587.6" r="4.2" fill="#efff9a" opacity="0.59" filter="url(#fireflyGlow)"/>
<circle cx="1514.0" cy="576.6" r="3.5" fill="#efff9a" opacity="0.83" filter="url(#fireflyGlow)"/>
<circle cx="815.1" cy="310.9" r="2.4" fill="#efff9a" opacity="0.53" filter="url(#fireflyGlow)"/>
<circle cx="1307.7" cy="647.1" r="3.2" fill="#efff9a" opacity="0.48" filter="url(#fireflyGlow)"/>
<circle cx="534.0" cy="574.2" r="3.4" fill="#efff9a" opacity="0.63" filter="url(#fireflyGlow)"/>
<circle cx="958.1" cy="578.2" r="4.6" fill="#efff9a" opacity="0.67" filter="url(#fireflyGlow)"/>
<circle cx="1024.6" cy="653.4" r="2.2" fill="#efff9a" opacity="0.83" filter="url(#fireflyGlow)"/>
<circle cx="649.8" cy="738.2" r="2.0" fill="#efff9a" opacity="0.82" filter="url(#fireflyGlow)"/>
<circle cx="793.0" cy="660.4" r="3.2" fill="#efff9a" opacity="0.75" filter="url(#fireflyGlow)"/>
<circle cx="1400.4" cy="243.7" r="2.4" fill="#efff9a" opacity="0.47" filter="url(#fireflyGlow)"/>
<circle cx="1150.8" cy="368.5" r="3.1" fill="#efff9a" opacity="0.56" filter="url(#fireflyGlow)"/>
<circle cx="395.5" cy="220.1" r="5.2" fill="#efff9a" opacity="0.65" filter="url(#fireflyGlow)"/>
<circle cx="860.9" cy="354.0" r="2.1" fill="#efff9a" opacity="0.62" filter="url(#fireflyGlow)"/>
<circle cx="606.4" cy="258.1" r="3.2" fill="#efff9a" opacity="0.67" filter="url(#fireflyGlow)"/>
<circle cx="426.6" cy="322.6" r="2.7" fill="#efff9a" opacity="0.47" filter="url(#fireflyGlow)"/></g>
<path d="M0 1015c240-49 419 10 640-17 198-24 387 10 579-11 249-27 441 16 701-10v103H0z" fill="#082b24"/>

</svg>
